<svg width="154" height="49" viewBox="0 0 154 49" fill="none" xmlns="http://www.w3.org/2000/svg">
    <g clip-path="url(#clip0_90_606)">
        <path d="M138.185 42.4725C130.175 42.4725 123.487 39.2704 122.599 31.6215C122.572 31.3848 122.741 31.1704 122.975 31.1404L131.194 30.08C131.451 30.0468 131.679 30.2456 131.702 30.5063C132.032 34.3164 134.706 36.0378 138.391 36.0378C142.298 36.0378 144.286 34.5847 144.286 32.0247C144.286 29.7413 141.681 28.9111 136.266 27.5964C129.685 26.005 123.653 23.9293 123.653 16.8026C123.653 9.19154 130.302 6.21631 137.705 6.21631C145.11 6.21631 151.457 8.68524 152.527 16.2442C152.56 16.4776 152.4 16.6952 152.17 16.7348L144.224 18.1026C143.965 18.1472 143.726 17.9522 143.699 17.688C143.331 14.163 141.119 12.5819 137.842 12.5819C135.032 12.5819 132.701 13.6198 132.701 16.0415C132.701 18.394 135.169 19.2244 139.762 20.2621C145.863 21.646 153.471 23.3066 153.471 31.5404C153.471 39.8432 146.205 42.4725 138.185 42.4725Z" fill="white"/>
        <path d="M117.231 9.51079C119.973 12.2784 120.316 16.0148 120.316 20.5123V41.7263C120.316 41.9716 120.119 42.1705 119.876 42.1705H111.09C110.847 42.1705 110.65 41.9716 110.65 41.7263V21.3425C110.65 18.1596 110.376 16.4991 108.868 15.0461C107.634 13.8698 106.469 13.6623 104.412 13.6623C101.465 13.6623 98.0374 15.6688 98.0374 22.7955V41.7263C98.0374 41.9716 97.8403 42.1705 97.5974 42.1705H88.8805C88.6375 42.1705 88.4406 41.9716 88.4406 41.7263V7.53319C88.4406 7.28793 88.6375 7.08909 88.8805 7.08909H97.5288C97.7717 7.08909 97.9688 7.28793 97.9688 7.53319V11.2984C97.9688 11.5112 98.282 11.5784 98.3801 11.3902C100.309 7.69189 103.975 6.25879 108.114 6.25879C112.501 6.25879 115.037 7.29666 117.231 9.51079Z" fill="white"/>
        <path d="M80.8467 10.6658C84.1746 14.0819 85.8512 19.2739 85.9923 25.8489C85.9976 26.0907 85.8078 26.291 85.5686 26.2987L61.3682 27.0708C61.1232 27.0787 60.9313 27.2881 60.9481 27.5348C61.3234 33.0409 64.1416 35.774 69.1458 35.6144C73.3684 35.4796 75.4997 33.5499 76.163 30.1761C76.2068 29.9528 76.4043 29.7907 76.6296 29.8035L85.0583 30.284C85.3296 30.2993 85.5224 30.559 85.4557 30.8251C83.5823 38.2996 78.0035 42.1851 69.3603 42.4609C64.016 42.6313 59.714 41.038 56.7477 38.2944C53.3572 35.1489 51.57 30.6371 51.388 24.8278C51.2147 19.2953 52.5748 14.5446 55.8302 11.1871C58.7516 8.11715 62.8128 6.39538 68.1569 6.22486C73.5694 6.05216 77.8716 7.64555 80.8467 10.6658ZM68.3669 12.9331C65.5578 13.0227 63.5969 13.916 62.3494 15.6864C61.5109 16.8484 61.0229 18.2864 60.8314 19.9499C60.8011 20.2128 61.0129 20.4364 61.275 20.4281L75.5781 19.9716C75.8377 19.9635 76.0344 19.7308 75.9939 19.4718C75.6934 17.5494 75.0879 15.9408 73.9109 14.7637C72.5659 13.4221 70.8335 12.8544 68.3669 12.9331Z" fill="white"/>
        <path d="M20.331 0.780483L7.17657 22.5939C7.07341 22.7649 6.83371 22.784 6.70575 22.6309C5.54768 21.2451 1.23328 15.3497 6.57191 9.97633C11.4434 5.07312 17.6484 1.57726 19.9481 0.36901C20.2089 0.231929 20.4837 0.527277 20.331 0.780483Z" fill="white"/>
        <path d="M19.5958 48.279C19.8584 48.4641 20.1818 48.1483 20.0059 47.8787C17.0676 43.3748 7.30058 28.3895 5.95137 26.1399C4.6206 23.9212 2.00318 20.2338 1.78483 17.0791C1.76303 16.7641 1.3309 16.7002 1.2222 16.9964C1.04688 17.474 0.860236 18.0441 0.686283 18.6954C-1.50973 26.9166 1.67955 35.6406 8.60601 40.5265L19.5958 48.279Z" fill="white"/>
        <path d="M21.404 47.8859L34.5584 26.0725C34.6616 25.9014 34.9013 25.8824 35.0293 26.0355C36.1873 27.4213 40.5017 33.3166 35.1631 38.6901C30.2917 43.5933 24.0867 47.0891 21.7871 48.2973C21.5262 48.4344 21.2512 48.139 21.404 47.8859Z" fill="white"/>
        <path d="M22.1381 0.389683C21.8756 0.204496 21.5521 0.520312 21.7282 0.790009C24.6664 5.29381 34.4335 20.279 35.7826 22.5286C37.1134 24.7473 39.7308 28.4347 39.9492 31.5896C39.971 31.9045 40.4031 31.9685 40.5119 31.6723C40.6871 31.1945 40.8737 30.6245 41.0477 29.9731C43.2437 21.752 40.0545 13.0281 33.128 8.14205L22.1381 0.389683Z" fill="white"/>
    </g>
    <defs>
        <clipPath id="clip0_90_606">
            <rect width="154" height="48" fill="white" transform="translate(0 0.334229)"/>
        </clipPath>
    </defs>
</svg>
