<svg width="890" height="669" viewBox="0 0 890 669" fill="none" xmlns="http://www.w3.org/2000/svg">
<g clip-path="url(#clip0_41_405)">
<path d="M0 12C0 5.3726 5.37258 0 12 0H878C884.627 0 890 5.37258 890 12V657C890 663.627 884.627 669 878 669H12C5.3726 669 0 663.627 0 657V12Z" fill="#60A5FA"/>
<circle cx="775.5" cy="319.5" r="101.5" fill="#93C5FD"/>
<circle cx="634" cy="486" r="88" fill="#BFDBFE"/>
<circle cx="836.5" cy="542.5" r="98.5" fill="#3B82F6"/>
<circle cx="560.5" cy="252.5" r="98.5" fill="#BFDBFE"/>
<circle cx="707.5" cy="96.5" r="98.5" fill="#3B82F6"/>
<circle cx="914.5" cy="133.5" r="98.5" fill="#3B82F6"/>
<circle cx="479.5" cy="48.5" r="98.5" fill="#93C5FD"/>
<circle cx="239.5" cy="77.5" r="98.5" fill="#3B82F6"/>
<circle cx="381.5" cy="206.5" r="65.5" fill="#DBEAFE"/>
<circle cx="42.5" cy="217.5" r="98.5" fill="#3B82F6"/>
<circle cx="32.5" cy="5.5" r="98.5" fill="#3B82F6"/>
<circle cx="239.5" cy="315.5" r="98.5" fill="#93C5FD"/>
<circle cx="49.5" cy="429.5" r="98.5" fill="#3B82F6"/>
<circle cx="239.5" cy="536.5" r="98.5" fill="#3B82F6"/>
<circle cx="42.5" cy="648.5" r="98.5" fill="#93C5FD"/>
<circle cx="431.5" cy="658.5" r="98.5" fill="#3B82F6"/>
<circle cx="665.5" cy="695.5" r="98.5" fill="#93C5FD"/>
<path d="M648.499 398.395C648.499 431.038 674.962 457.5 707.605 457.5C707.737 457.5 707.869 457.498 708 457.497V457.502C707.869 457.501 707.737 457.5 707.605 457.5C674.962 457.5 648.499 483.963 648.499 516.606C648.499 516.738 648.501 516.869 648.502 517H648.497C648.498 516.869 648.499 516.738 648.499 516.606C648.499 483.963 622.037 457.5 589.394 457.5C589.262 457.5 589.131 457.501 589 457.502V457.497C589.131 457.498 589.262 457.5 589.394 457.5C622.037 457.5 648.499 431.038 648.499 398.395C648.499 398.263 648.498 398.131 648.497 398H648.502C648.501 398.131 648.499 398.263 648.499 398.395Z" fill="#EFF6FF"/>
<path d="M189.499 -20.4209C189.499 27.584 228.415 66.5 276.42 66.5C276.613 66.5 276.807 66.4974 277 66.4961V66.5029C276.807 66.5017 276.613 66.5 276.42 66.5C228.415 66.5 189.499 105.415 189.499 153.42C189.499 153.613 189.502 153.807 189.503 154H189.495C189.496 153.807 189.499 153.613 189.499 153.42C189.499 105.415 150.584 66.5001 102.579 66.5C102.386 66.5 102.193 66.5017 102 66.5029V66.4961C102.193 66.4974 102.386 66.5 102.579 66.5C150.584 66.4999 189.499 27.5839 189.499 -20.4209C189.499 -20.6141 189.496 -20.8071 189.495 -21H189.503C189.502 -20.8071 189.499 -20.6141 189.499 -20.4209Z" fill="#EFF6FF"/>
<path d="M337.5 615.162C337.5 628.603 348.397 639.5 361.838 639.5C361.892 639.5 361.946 639.497 362 639.497V639.502C361.946 639.502 361.892 639.5 361.838 639.5C348.397 639.5 337.5 650.397 337.5 663.838C337.5 663.892 337.502 663.946 337.502 664H337.498C337.498 663.946 337.5 663.892 337.5 663.838C337.5 650.397 326.603 639.5 313.162 639.5C313.108 639.5 313.054 639.502 313 639.502V639.497C313.054 639.497 313.108 639.5 313.162 639.5C326.603 639.5 337.5 628.603 337.5 615.162C337.5 615.108 337.498 615.054 337.498 615H337.502C337.502 615.054 337.5 615.108 337.5 615.162Z" fill="#EFF6FF"/>
<path d="M775.499 252.446C775.499 289.478 805.52 319.499 842.552 319.499C842.701 319.499 842.851 319.497 843 319.496V319.502C842.851 319.501 842.701 319.499 842.552 319.499C805.52 319.499 775.499 349.52 775.499 386.552C775.499 386.701 775.501 386.851 775.502 387H775.496C775.497 386.851 775.499 386.701 775.499 386.552C775.499 349.52 745.478 319.499 708.446 319.499C708.297 319.499 708.149 319.501 708 319.502V319.496C708.149 319.497 708.297 319.499 708.446 319.499C745.479 319.499 775.499 289.479 775.499 252.446C775.499 252.297 775.497 252.149 775.496 252H775.502C775.501 252.149 775.499 252.297 775.499 252.446Z" fill="#EFF6FF"/>
<rect x="167" y="262" width="556" height="145" rx="20" fill="#3280F4"/>
<path d="M207 343.86C207 339.254 207.858 335.21 209.575 331.728C211.345 328.246 213.733 325.568 216.737 323.693C219.741 321.819 223.094 320.881 226.796 320.881C229.746 320.881 232.429 321.497 234.843 322.729C237.311 323.961 239.242 325.622 240.637 327.711V306.901H254.397V366.357H240.637V359.93C239.349 362.072 237.499 363.786 235.084 365.072C232.724 366.357 229.961 367 226.796 367C223.094 367 219.741 366.063 216.737 364.188C213.733 362.26 211.345 359.555 209.575 356.073C207.858 352.538 207 348.467 207 343.86ZM240.637 343.941C240.637 340.513 239.671 337.808 237.74 335.826C235.862 333.844 233.555 332.853 230.819 332.853C228.083 332.853 225.75 333.844 223.818 335.826C221.941 337.754 221.002 340.432 221.002 343.86C221.002 347.288 221.941 350.02 223.818 352.056C225.75 354.037 228.083 355.028 230.819 355.028C233.555 355.028 235.862 354.037 237.74 352.056C239.671 350.074 240.637 347.369 240.637 343.941Z" fill="white"/>
<path d="M284.792 367C280.393 367 276.423 366.063 272.883 364.188C269.395 362.313 266.633 359.635 264.594 356.153C262.609 352.672 261.617 348.601 261.617 343.941C261.617 339.334 262.636 335.29 264.674 331.808C266.713 328.273 269.503 325.568 273.043 323.693C276.584 321.819 280.554 320.881 284.953 320.881C289.352 320.881 293.322 321.819 296.863 323.693C300.404 325.568 303.193 328.273 305.232 331.808C307.27 335.29 308.29 339.334 308.29 343.941C308.29 348.547 307.244 352.618 305.151 356.153C303.113 359.635 300.296 362.313 296.702 364.188C293.161 366.063 289.191 367 284.792 367ZM284.792 355.109C287.421 355.109 289.647 354.145 291.471 352.216C293.349 350.288 294.288 347.529 294.288 343.941C294.288 340.352 293.376 337.593 291.552 335.665C289.781 333.737 287.582 332.773 284.953 332.773C282.271 332.773 280.044 333.737 278.274 335.665C276.504 337.54 275.619 340.298 275.619 343.941C275.619 347.529 276.477 350.288 278.194 352.216C279.964 354.145 282.164 355.109 284.792 355.109Z" fill="white"/>
<path d="M372.885 321.042C378.465 321.042 382.891 322.729 386.163 326.104C389.489 329.478 391.152 334.165 391.152 340.164V366.357H377.472V342.012C377.472 339.12 376.694 336.897 375.139 335.344C373.636 333.737 371.544 332.933 368.862 332.933C366.179 332.933 364.06 333.737 362.505 335.344C361.002 336.897 360.251 339.12 360.251 342.012V366.357H346.571V342.012C346.571 339.12 345.793 336.897 344.238 335.344C342.736 333.737 340.643 332.933 337.961 332.933C335.279 332.933 333.16 333.737 331.604 335.344C330.102 336.897 329.351 339.12 329.351 342.012V366.357H315.59V321.524H329.351V327.148C330.745 325.274 332.569 323.801 334.823 322.729C337.076 321.604 339.624 321.042 342.467 321.042C345.847 321.042 348.851 321.765 351.48 323.211C354.162 324.658 356.255 326.72 357.757 329.398C359.313 326.934 361.432 324.925 364.114 323.372C366.796 321.819 369.72 321.042 372.885 321.042Z" fill="white"/>
<path d="M398.04 343.86C398.04 339.254 398.898 335.21 400.615 331.728C402.386 328.246 404.773 325.568 407.777 323.693C410.781 321.819 414.134 320.881 417.836 320.881C421.001 320.881 423.764 321.524 426.124 322.81C428.539 324.095 430.389 325.782 431.677 327.871V321.524H445.438V366.357H431.677V360.01C430.336 362.099 428.458 363.786 426.044 365.072C423.684 366.357 420.921 367 417.756 367C414.107 367 410.781 366.063 407.777 364.188C404.773 362.26 402.386 359.555 400.615 356.073C398.898 352.538 398.04 348.467 398.04 343.86ZM431.677 343.941C431.677 340.513 430.711 337.808 428.78 335.826C426.902 333.844 424.596 332.853 421.86 332.853C419.124 332.853 416.79 333.844 414.859 335.826C412.981 337.754 412.042 340.432 412.042 343.86C412.042 347.288 412.981 350.02 414.859 352.056C416.79 354.037 419.124 355.028 421.86 355.028C424.596 355.028 426.902 354.037 428.78 352.056C430.711 350.074 431.677 347.369 431.677 343.941Z" fill="white"/>
<path d="M462.313 316.864C459.899 316.864 457.914 316.168 456.358 314.775C454.856 313.329 454.105 311.561 454.105 309.472C454.105 307.33 454.856 305.562 456.358 304.169C457.914 302.723 459.899 302 462.313 302C464.674 302 466.605 302.723 468.107 304.169C469.663 305.562 470.441 307.33 470.441 309.472C470.441 311.561 469.663 313.329 468.107 314.775C466.605 316.168 464.674 316.864 462.313 316.864ZM469.153 321.524V366.357H455.393V321.524H469.153Z" fill="white"/>
<path d="M506.486 321.042C511.743 321.042 515.927 322.756 519.039 326.184C522.204 329.559 523.787 334.219 523.787 340.164V366.357H510.107V342.012C510.107 339.013 509.329 336.683 507.773 335.022C506.217 333.362 504.125 332.532 501.496 332.532C498.868 332.532 496.775 333.362 495.22 335.022C493.664 336.683 492.886 339.013 492.886 342.012V366.357H479.125V321.524H492.886V327.47C494.281 325.488 496.158 323.934 498.519 322.81C500.879 321.631 503.535 321.042 506.486 321.042Z" fill="white"/>
<path d="M539.787 367C537.373 367 535.388 366.304 533.832 364.911C532.33 363.465 531.579 361.697 531.579 359.608C531.579 357.466 532.33 355.671 533.832 354.225C535.388 352.779 537.373 352.056 539.787 352.056C542.147 352.056 544.078 352.779 545.581 354.225C547.136 355.671 547.914 357.466 547.914 359.608C547.914 361.697 547.136 363.465 545.581 364.911C544.078 366.304 542.147 367 539.787 367Z" fill="white"/>
<path d="M598.388 343.218C598.388 344.503 598.307 345.842 598.146 347.235H567.004C567.219 350.02 568.104 352.163 569.66 353.663C571.269 355.109 573.227 355.832 575.534 355.832C578.967 355.832 581.355 354.386 582.696 351.493H597.342C596.591 354.439 595.223 357.091 593.238 359.447C591.306 361.804 588.865 363.652 585.915 364.991C582.964 366.33 579.665 367 576.017 367C571.618 367 567.702 366.063 564.268 364.188C560.835 362.313 558.152 359.635 556.221 356.153C554.29 352.672 553.324 348.601 553.324 343.941C553.324 339.281 554.263 335.21 556.141 331.728C558.072 328.246 560.754 325.568 564.188 323.693C567.621 321.819 571.564 320.881 576.017 320.881C580.362 320.881 584.225 321.792 587.605 323.613C590.984 325.434 593.613 328.032 595.491 331.407C597.422 334.781 598.388 338.718 598.388 343.218ZM584.305 339.602C584.305 337.245 583.501 335.37 581.891 333.978C580.282 332.585 578.27 331.889 575.856 331.889C573.549 331.889 571.591 332.558 569.982 333.897C568.426 335.237 567.46 337.138 567.085 339.602H584.305Z" fill="white"/>
<path d="M630.674 354.707V366.357H623.673C618.684 366.357 614.794 365.152 612.004 362.742C609.215 360.278 607.82 356.287 607.82 350.77V332.933H602.348V321.524H607.82V310.597H621.58V321.524H630.593V332.933H621.58V350.931C621.58 352.27 621.902 353.234 622.546 353.823C623.19 354.412 624.263 354.707 625.765 354.707H630.674Z" fill="white"/>
<path d="M665.94 321.042C671.09 321.042 675.221 322.756 678.333 326.184C681.444 329.559 683 334.219 683 340.164V366.357H669.32V342.012C669.32 339.013 668.542 336.683 666.986 335.022C665.43 333.362 663.338 332.532 660.71 332.532C658.081 332.532 655.989 333.362 654.433 335.022C652.877 336.683 652.099 339.013 652.099 342.012V366.357H638.339V306.901H652.099V327.55C653.494 325.568 655.398 323.988 657.813 322.81C660.227 321.631 662.936 321.042 665.94 321.042Z" fill="white"/>
<rect x="30" y="444" width="529" height="116" rx="20" fill="#BFDBFE"/>
<path d="M81.6655 516.32C79.7188 516.32 77.9855 515.987 76.4655 515.32C74.9455 514.653 73.7455 513.747 72.8655 512.6C71.9855 511.427 71.4921 510.12 71.3855 508.68H78.1455C78.2255 509.453 78.5855 510.08 79.2255 510.56C79.8655 511.04 80.6521 511.28 81.5855 511.28C82.4388 511.28 83.0921 511.12 83.5455 510.8C84.0255 510.453 84.2655 510.013 84.2655 509.48C84.2655 508.84 83.9321 508.373 83.2655 508.08C82.5988 507.76 81.5188 507.413 80.0255 507.04C78.4255 506.667 77.0921 506.28 76.0255 505.88C74.9588 505.453 74.0388 504.8 73.2655 503.92C72.4921 503.013 72.1055 501.8 72.1055 500.28C72.1055 499 72.4521 497.84 73.1455 496.8C73.8655 495.733 74.9055 494.893 76.2655 494.28C77.6521 493.667 79.2921 493.36 81.1855 493.36C83.9855 493.36 86.1855 494.053 87.7855 495.44C89.4121 496.827 90.3455 498.667 90.5855 500.96H84.2655C84.1588 500.187 83.8121 499.573 83.2255 499.12C82.6655 498.667 81.9188 498.44 80.9855 498.44C80.1855 498.44 79.5721 498.6 79.1455 498.92C78.7188 499.213 78.5055 499.627 78.5055 500.16C78.5055 500.8 78.8388 501.28 79.5055 501.6C80.1988 501.92 81.2655 502.24 82.7055 502.56C84.3588 502.987 85.7055 503.413 86.7455 503.84C87.7855 504.24 88.6921 504.907 89.4655 505.84C90.2655 506.747 90.6788 507.973 90.7055 509.52C90.7055 510.827 90.3321 512 89.5855 513.04C88.8655 514.053 87.8121 514.853 86.4255 515.44C85.0655 516.027 83.4788 516.32 81.6655 516.32ZM116.93 493.68V516H110.09V512.96C109.397 513.947 108.45 514.747 107.25 515.36C106.077 515.947 104.77 516.24 103.33 516.24C101.623 516.24 100.117 515.867 98.8102 515.12C97.5035 514.347 96.4902 513.24 95.7702 511.8C95.0502 510.36 94.6902 508.667 94.6902 506.72V493.68H101.49V505.8C101.49 507.293 101.877 508.453 102.65 509.28C103.423 510.107 104.463 510.52 105.77 510.52C107.103 510.52 108.157 510.107 108.93 509.28C109.703 508.453 110.09 507.293 110.09 505.8V493.68H116.93ZM128.683 496.84C129.323 495.8 130.243 494.96 131.443 494.32C132.643 493.68 134.017 493.36 135.563 493.36C137.403 493.36 139.07 493.827 140.563 494.76C142.057 495.693 143.23 497.027 144.083 498.76C144.963 500.493 145.403 502.507 145.403 504.8C145.403 507.093 144.963 509.12 144.083 510.88C143.23 512.613 142.057 513.96 140.563 514.92C139.07 515.853 137.403 516.32 135.563 516.32C133.99 516.32 132.617 516.013 131.443 515.4C130.27 514.76 129.35 513.92 128.683 512.88V516H121.843V486.4H128.683V496.84ZM138.443 504.8C138.443 503.093 137.963 501.76 137.003 500.8C136.07 499.813 134.91 499.32 133.523 499.32C132.163 499.32 131.003 499.813 130.043 500.8C129.11 501.787 128.643 503.133 128.643 504.84C128.643 506.547 129.11 507.893 130.043 508.88C131.003 509.867 132.163 510.36 133.523 510.36C134.883 510.36 136.043 509.867 137.003 508.88C137.963 507.867 138.443 506.507 138.443 504.8ZM162.592 493.44C165.205 493.44 167.285 494.293 168.832 496C170.405 497.68 171.192 500 171.192 502.96V516H164.392V503.88C164.392 502.387 164.005 501.227 163.232 500.4C162.458 499.573 161.418 499.16 160.112 499.16C158.805 499.16 157.765 499.573 156.992 500.4C156.218 501.227 155.832 502.387 155.832 503.88V516H148.992V493.68H155.832V496.64C156.525 495.653 157.458 494.88 158.632 494.32C159.805 493.733 161.125 493.44 162.592 493.44ZM174.585 504.8C174.585 502.507 175.012 500.493 175.865 498.76C176.745 497.027 177.932 495.693 179.425 494.76C180.918 493.827 182.585 493.36 184.425 493.36C185.998 493.36 187.372 493.68 188.545 494.32C189.745 494.96 190.665 495.8 191.305 496.84V493.68H198.145V516H191.305V512.84C190.638 513.88 189.705 514.72 188.505 515.36C187.332 516 185.958 516.32 184.385 516.32C182.572 516.32 180.918 515.853 179.425 514.92C177.932 513.96 176.745 512.613 175.865 510.88C175.012 509.12 174.585 507.093 174.585 504.8ZM191.305 504.84C191.305 503.133 190.825 501.787 189.865 500.8C188.932 499.813 187.785 499.32 186.425 499.32C185.065 499.32 183.905 499.813 182.945 500.8C182.012 501.76 181.545 503.093 181.545 504.8C181.545 506.507 182.012 507.867 182.945 508.88C183.905 509.867 185.065 510.36 186.425 510.36C187.785 510.36 188.932 509.867 189.865 508.88C190.825 507.893 191.305 506.547 191.305 504.84ZM231.573 493.44C234.347 493.44 236.547 494.28 238.173 495.96C239.827 497.64 240.653 499.973 240.653 502.96V516H233.853V503.88C233.853 502.44 233.467 501.333 232.693 500.56C231.947 499.76 230.907 499.36 229.573 499.36C228.24 499.36 227.187 499.76 226.413 500.56C225.667 501.333 225.293 502.44 225.293 503.88V516H218.493V503.88C218.493 502.44 218.107 501.333 217.333 500.56C216.587 499.76 215.547 499.36 214.213 499.36C212.88 499.36 211.827 499.76 211.053 500.56C210.307 501.333 209.933 502.44 209.933 503.88V516H203.093V493.68H209.933V496.48C210.627 495.547 211.533 494.813 212.653 494.28C213.773 493.72 215.04 493.44 216.453 493.44C218.133 493.44 219.627 493.8 220.933 494.52C222.267 495.24 223.307 496.267 224.053 497.6C224.827 496.373 225.88 495.373 227.213 494.6C228.547 493.827 230 493.44 231.573 493.44ZM266.477 504.48C266.477 505.12 266.437 505.787 266.357 506.48H250.877C250.984 507.867 251.424 508.933 252.197 509.68C252.997 510.4 253.97 510.76 255.117 510.76C256.824 510.76 258.01 510.04 258.677 508.6H265.957C265.584 510.067 264.904 511.387 263.917 512.56C262.957 513.733 261.744 514.653 260.277 515.32C258.81 515.987 257.17 516.32 255.357 516.32C253.17 516.32 251.224 515.853 249.517 514.92C247.81 513.987 246.477 512.653 245.517 510.92C244.557 509.187 244.077 507.16 244.077 504.84C244.077 502.52 244.544 500.493 245.477 498.76C246.437 497.027 247.77 495.693 249.477 494.76C251.184 493.827 253.144 493.36 255.357 493.36C257.517 493.36 259.437 493.813 261.117 494.72C262.797 495.627 264.104 496.92 265.037 498.6C265.997 500.28 266.477 502.24 266.477 504.48ZM259.477 502.68C259.477 501.507 259.077 500.573 258.277 499.88C257.477 499.187 256.477 498.84 255.277 498.84C254.13 498.84 253.157 499.173 252.357 499.84C251.584 500.507 251.104 501.453 250.917 502.68H259.477ZM273.285 516.32C272.085 516.32 271.099 515.973 270.325 515.28C269.579 514.56 269.205 513.68 269.205 512.64C269.205 511.573 269.579 510.68 270.325 509.96C271.099 509.24 272.085 508.88 273.285 508.88C274.459 508.88 275.419 509.24 276.165 509.96C276.939 510.68 277.325 511.573 277.325 512.64C277.325 513.68 276.939 514.56 276.165 515.28C275.419 515.973 274.459 516.32 273.285 516.32ZM280.015 504.8C280.015 502.507 280.441 500.493 281.295 498.76C282.175 497.027 283.361 495.693 284.855 494.76C286.348 493.827 288.015 493.36 289.855 493.36C291.321 493.36 292.655 493.667 293.855 494.28C295.081 494.893 296.041 495.72 296.735 496.76V486.4H303.575V516H296.735V512.8C296.095 513.867 295.175 514.72 293.975 515.36C292.801 516 291.428 516.32 289.855 516.32C288.015 516.32 286.348 515.853 284.855 514.92C283.361 513.96 282.175 512.613 281.295 510.88C280.441 509.12 280.015 507.093 280.015 504.8ZM296.735 504.84C296.735 503.133 296.255 501.787 295.295 500.8C294.361 499.813 293.215 499.32 291.855 499.32C290.495 499.32 289.335 499.813 288.375 500.8C287.441 501.76 286.975 503.093 286.975 504.8C286.975 506.507 287.441 507.867 288.375 508.88C289.335 509.867 290.495 510.36 291.855 510.36C293.215 510.36 294.361 509.867 295.295 508.88C296.255 507.893 296.735 506.547 296.735 504.84ZM318.683 516.32C316.496 516.32 314.523 515.853 312.763 514.92C311.03 513.987 309.656 512.653 308.643 510.92C307.656 509.187 307.163 507.16 307.163 504.84C307.163 502.547 307.67 500.533 308.683 498.8C309.696 497.04 311.083 495.693 312.843 494.76C314.603 493.827 316.576 493.36 318.763 493.36C320.95 493.36 322.923 493.827 324.683 494.76C326.443 495.693 327.83 497.04 328.843 498.8C329.856 500.533 330.363 502.547 330.363 504.84C330.363 507.133 329.843 509.16 328.803 510.92C327.79 512.653 326.39 513.987 324.603 514.92C322.843 515.853 320.87 516.32 318.683 516.32ZM318.683 510.4C319.99 510.4 321.096 509.92 322.003 508.96C322.936 508 323.403 506.627 323.403 504.84C323.403 503.053 322.95 501.68 322.043 500.72C321.163 499.76 320.07 499.28 318.763 499.28C317.43 499.28 316.323 499.76 315.443 500.72C314.563 501.653 314.123 503.027 314.123 504.84C314.123 506.627 314.55 508 315.403 508.96C316.283 509.92 317.376 510.4 318.683 510.4ZM362.472 493.44C365.245 493.44 367.445 494.28 369.072 495.96C370.725 497.64 371.552 499.973 371.552 502.96V516H364.752V503.88C364.752 502.44 364.365 501.333 363.592 500.56C362.845 499.76 361.805 499.36 360.472 499.36C359.138 499.36 358.085 499.76 357.312 500.56C356.565 501.333 356.192 502.44 356.192 503.88V516H349.392V503.88C349.392 502.44 349.005 501.333 348.232 500.56C347.485 499.76 346.445 499.36 345.112 499.36C343.778 499.36 342.725 499.76 341.952 500.56C341.205 501.333 340.832 502.44 340.832 503.88V516H333.992V493.68H340.832V496.48C341.525 495.547 342.432 494.813 343.552 494.28C344.672 493.72 345.938 493.44 347.352 493.44C349.032 493.44 350.525 493.8 351.832 494.52C353.165 495.24 354.205 496.267 354.952 497.6C355.725 496.373 356.778 495.373 358.112 494.6C359.445 493.827 360.898 493.44 362.472 493.44ZM374.975 504.8C374.975 502.507 375.402 500.493 376.255 498.76C377.135 497.027 378.322 495.693 379.815 494.76C381.309 493.827 382.975 493.36 384.815 493.36C386.389 493.36 387.762 493.68 388.935 494.32C390.135 494.96 391.055 495.8 391.695 496.84V493.68H398.535V516H391.695V512.84C391.029 513.88 390.095 514.72 388.895 515.36C387.722 516 386.349 516.32 384.775 516.32C382.962 516.32 381.309 515.853 379.815 514.92C378.322 513.96 377.135 512.613 376.255 510.88C375.402 509.12 374.975 507.093 374.975 504.8ZM391.695 504.84C391.695 503.133 391.215 501.787 390.255 500.8C389.322 499.813 388.175 499.32 386.815 499.32C385.455 499.32 384.295 499.813 383.335 500.8C382.402 501.76 381.935 503.093 381.935 504.8C381.935 506.507 382.402 507.867 383.335 508.88C384.295 509.867 385.455 510.36 386.815 510.36C388.175 510.36 389.322 509.867 390.255 508.88C391.215 507.893 391.695 506.547 391.695 504.84ZM406.924 491.36C405.724 491.36 404.737 491.013 403.964 490.32C403.217 489.6 402.844 488.72 402.844 487.68C402.844 486.613 403.217 485.733 403.964 485.04C404.737 484.32 405.724 483.96 406.924 483.96C408.097 483.96 409.057 484.32 409.804 485.04C410.577 485.733 410.964 486.613 410.964 487.68C410.964 488.72 410.577 489.6 409.804 490.32C409.057 491.013 408.097 491.36 406.924 491.36ZM410.324 493.68V516H403.484V493.68H410.324ZM428.881 493.44C431.494 493.44 433.574 494.293 435.121 496C436.694 497.68 437.481 500 437.481 502.96V516H430.681V503.88C430.681 502.387 430.294 501.227 429.521 500.4C428.747 499.573 427.707 499.16 426.401 499.16C425.094 499.16 424.054 499.573 423.281 500.4C422.507 501.227 422.121 502.387 422.121 503.88V516H415.281V493.68H422.121V496.64C422.814 495.653 423.747 494.88 424.921 494.32C426.094 493.733 427.414 493.44 428.881 493.44ZM445.434 516.32C444.234 516.32 443.247 515.973 442.474 515.28C441.727 514.56 441.354 513.68 441.354 512.64C441.354 511.573 441.727 510.68 442.474 509.96C443.247 509.24 444.234 508.88 445.434 508.88C446.607 508.88 447.567 509.24 448.314 509.96C449.087 510.68 449.474 511.573 449.474 512.64C449.474 513.68 449.087 514.56 448.314 515.28C447.567 515.973 446.607 516.32 445.434 516.32ZM474.563 504.48C474.563 505.12 474.523 505.787 474.443 506.48H458.963C459.07 507.867 459.51 508.933 460.283 509.68C461.083 510.4 462.056 510.76 463.203 510.76C464.91 510.76 466.096 510.04 466.763 508.6H474.043C473.67 510.067 472.99 511.387 472.003 512.56C471.043 513.733 469.83 514.653 468.363 515.32C466.896 515.987 465.256 516.32 463.443 516.32C461.256 516.32 459.31 515.853 457.603 514.92C455.896 513.987 454.563 512.653 453.603 510.92C452.643 509.187 452.163 507.16 452.163 504.84C452.163 502.52 452.63 500.493 453.563 498.76C454.523 497.027 455.856 495.693 457.563 494.76C459.27 493.827 461.23 493.36 463.443 493.36C465.603 493.36 467.523 493.813 469.203 494.72C470.883 495.627 472.19 496.92 473.123 498.6C474.083 500.28 474.563 502.24 474.563 504.48ZM467.563 502.68C467.563 501.507 467.163 500.573 466.363 499.88C465.563 499.187 464.563 498.84 463.363 498.84C462.216 498.84 461.243 499.173 460.443 499.84C459.67 500.507 459.19 501.453 459.003 502.68H467.563ZM490.611 510.2V516H487.131C484.651 516 482.718 515.4 481.331 514.2C479.945 512.973 479.251 510.987 479.251 508.24V499.36H476.531V493.68H479.251V488.24H486.091V493.68H490.571V499.36H486.091V508.32C486.091 508.987 486.251 509.467 486.571 509.76C486.891 510.053 487.425 510.2 488.171 510.2H490.611ZM508.141 493.44C510.701 493.44 512.755 494.293 514.301 496C515.848 497.68 516.621 500 516.621 502.96V516H509.821V503.88C509.821 502.387 509.435 501.227 508.661 500.4C507.888 499.573 506.848 499.16 505.541 499.16C504.235 499.16 503.195 499.573 502.421 500.4C501.648 501.227 501.261 502.387 501.261 503.88V516H494.421V486.4H501.261V496.68C501.955 495.693 502.901 494.907 504.101 494.32C505.301 493.733 506.648 493.44 508.141 493.44Z" fill="#3B82F6"/>
<rect x="-68" y="35" width="378" height="116" rx="20" fill="#BFDBFE"/>
<path d="M-15.0891 85.952C-12.9985 85.952 -11.3345 86.6347 -10.0971 88C-8.83846 89.344 -8.20912 91.2 -8.20912 93.568V104H-13.6491V94.304C-13.6491 93.1093 -13.9585 92.1813 -14.5771 91.52C-15.1958 90.8587 -16.0278 90.528 -17.0731 90.528C-18.1185 90.528 -18.9505 90.8587 -19.5691 91.52C-20.1878 92.1813 -20.4971 93.1093 -20.4971 94.304V104H-25.9691V86.144H-20.4971V88.512C-19.9425 87.7227 -19.1958 87.104 -18.2571 86.656C-17.3185 86.1867 -16.2625 85.952 -15.0891 85.952ZM-5.49462 95.04C-5.49462 93.2053 -5.15329 91.5947 -4.47062 90.208C-3.76662 88.8213 -2.81729 87.7547 -1.62262 87.008C-0.427958 86.2613 0.905375 85.888 2.37738 85.888C3.63604 85.888 4.73471 86.144 5.67338 86.656C6.63338 87.168 7.36938 87.84 7.88138 88.672V86.144H13.3534V104H7.88138V101.472C7.34804 102.304 6.60138 102.976 5.64138 103.488C4.70271 104 3.60404 104.256 2.34538 104.256C0.894709 104.256 -0.427958 103.883 -1.62262 103.136C-2.81729 102.368 -3.76662 101.291 -4.47062 99.904C-5.15329 98.496 -5.49462 96.8747 -5.49462 95.04ZM7.88138 95.072C7.88138 93.7067 7.49738 92.6293 6.72938 91.84C5.98271 91.0507 5.06538 90.656 3.97738 90.656C2.88938 90.656 1.96138 91.0507 1.19338 91.84C0.446709 92.608 0.0733752 93.6747 0.0733752 95.04C0.0733752 96.4053 0.446709 97.4933 1.19338 98.304C1.96138 99.0933 2.88938 99.488 3.97738 99.488C5.06538 99.488 5.98271 99.0933 6.72938 98.304C7.49738 97.5147 7.88138 96.4373 7.88138 95.072ZM40.0961 85.952C42.3148 85.952 44.0748 86.624 45.3761 87.968C46.6988 89.312 47.3601 91.1787 47.3601 93.568V104H41.9201V94.304C41.9201 93.152 41.6108 92.2667 40.9921 91.648C40.3948 91.008 39.5628 90.688 38.4961 90.688C37.4295 90.688 36.5868 91.008 35.9681 91.648C35.3708 92.2667 35.0721 93.152 35.0721 94.304V104H29.6321V94.304C29.6321 93.152 29.3228 92.2667 28.7041 91.648C28.1068 91.008 27.2748 90.688 26.2081 90.688C25.1415 90.688 24.2988 91.008 23.6801 91.648C23.0828 92.2667 22.7841 93.152 22.7841 94.304V104H17.3121V86.144H22.7841V88.384C23.3388 87.6373 24.0641 87.0507 24.9601 86.624C25.8561 86.176 26.8695 85.952 28.0001 85.952C29.3441 85.952 30.5388 86.24 31.5841 86.816C32.6508 87.392 33.4828 88.2133 34.0801 89.28C34.6988 88.2987 35.5415 87.4987 36.6081 86.88C37.6748 86.2613 38.8375 85.952 40.0961 85.952ZM68.0191 94.784C68.0191 95.296 67.9871 95.8293 67.9231 96.384H55.5391C55.6245 97.4933 55.9765 98.3467 56.5951 98.944C57.2351 99.52 58.0138 99.808 58.9311 99.808C60.2965 99.808 61.2458 99.232 61.7791 98.08H67.6031C67.3045 99.2533 66.7605 100.309 65.9711 101.248C65.2031 102.187 64.2325 102.923 63.0591 103.456C61.8858 103.989 60.5738 104.256 59.1231 104.256C57.3738 104.256 55.8165 103.883 54.4511 103.136C53.0858 102.389 52.0191 101.323 51.2511 99.936C50.4831 98.5493 50.0991 96.928 50.0991 95.072C50.0991 93.216 50.4725 91.5947 51.2191 90.208C51.9871 88.8213 53.0538 87.7547 54.4191 87.008C55.7845 86.2613 57.3525 85.888 59.1231 85.888C60.8511 85.888 62.3871 86.2507 63.7311 86.976C65.0751 87.7013 66.1205 88.736 66.8671 90.08C67.6351 91.424 68.0191 92.992 68.0191 94.784ZM62.4191 93.344C62.4191 92.4053 62.0991 91.6587 61.4591 91.104C60.8191 90.5493 60.0191 90.272 59.0591 90.272C58.1418 90.272 57.3631 90.5387 56.7231 91.072C56.1045 91.6053 55.7205 92.3627 55.5711 93.344H62.4191ZM73.4659 104.256C72.5059 104.256 71.7165 103.979 71.0979 103.424C70.5005 102.848 70.2019 102.144 70.2019 101.312C70.2019 100.459 70.5005 99.744 71.0979 99.168C71.7165 98.592 72.5059 98.304 73.4659 98.304C74.4045 98.304 75.1725 98.592 75.7699 99.168C76.3885 99.744 76.6979 100.459 76.6979 101.312C76.6979 102.144 76.3885 102.848 75.7699 103.424C75.1725 103.979 74.4045 104.256 73.4659 104.256ZM78.8491 95.04C78.8491 93.2053 79.1905 91.5947 79.8731 90.208C80.5771 88.8213 81.5265 87.7547 82.7211 87.008C83.9158 86.2613 85.2491 85.888 86.7211 85.888C87.8945 85.888 88.9611 86.1333 89.9211 86.624C90.9025 87.1147 91.6705 87.776 92.2251 88.608V80.32H97.6971V104H92.2251V101.44C91.7131 102.293 90.9771 102.976 90.0171 103.488C89.0785 104 87.9798 104.256 86.7211 104.256C85.2491 104.256 83.9158 103.883 82.7211 103.136C81.5265 102.368 80.5771 101.291 79.8731 99.904C79.1905 98.496 78.8491 96.8747 78.8491 95.04ZM92.2251 95.072C92.2251 93.7067 91.8411 92.6293 91.0731 91.84C90.3265 91.0507 89.4091 90.656 88.3211 90.656C87.2331 90.656 86.3051 91.0507 85.5371 91.84C84.7905 92.608 84.4171 93.6747 84.4171 95.04C84.4171 96.4053 84.7905 97.4933 85.5371 98.304C86.3051 99.0933 87.2331 99.488 88.3211 99.488C89.4091 99.488 90.3265 99.0933 91.0731 98.304C91.8411 97.5147 92.2251 96.4373 92.2251 95.072ZM109.784 104.256C108.035 104.256 106.456 103.883 105.048 103.136C103.661 102.389 102.563 101.323 101.752 99.936C100.963 98.5493 100.568 96.928 100.568 95.072C100.568 93.2373 100.973 91.6267 101.784 90.24C102.595 88.832 103.704 87.7547 105.112 87.008C106.52 86.2613 108.099 85.888 109.848 85.888C111.597 85.888 113.176 86.2613 114.584 87.008C115.992 87.7547 117.101 88.832 117.912 90.24C118.723 91.6267 119.128 93.2373 119.128 95.072C119.128 96.9067 118.712 98.528 117.88 99.936C117.069 101.323 115.949 102.389 114.52 103.136C113.112 103.883 111.533 104.256 109.784 104.256ZM109.784 99.52C110.829 99.52 111.715 99.136 112.44 98.368C113.187 97.6 113.56 96.5013 113.56 95.072C113.56 93.6427 113.197 92.544 112.472 91.776C111.768 91.008 110.893 90.624 109.848 90.624C108.781 90.624 107.896 91.008 107.192 91.776C106.488 92.5227 106.136 93.6213 106.136 95.072C106.136 96.5013 106.477 97.6 107.16 98.368C107.864 99.136 108.739 99.52 109.784 99.52ZM144.815 85.952C147.034 85.952 148.794 86.624 150.095 87.968C151.418 89.312 152.079 91.1787 152.079 93.568V104H146.639V94.304C146.639 93.152 146.33 92.2667 145.711 91.648C145.114 91.008 144.282 90.688 143.215 90.688C142.148 90.688 141.306 91.008 140.687 91.648C140.09 92.2667 139.791 93.152 139.791 94.304V104H134.351V94.304C134.351 93.152 134.042 92.2667 133.423 91.648C132.826 91.008 131.994 90.688 130.927 90.688C129.86 90.688 129.018 91.008 128.399 91.648C127.802 92.2667 127.503 93.152 127.503 94.304V104H122.031V86.144H127.503V88.384C128.058 87.6373 128.783 87.0507 129.679 86.624C130.575 86.176 131.588 85.952 132.719 85.952C134.063 85.952 135.258 86.24 136.303 86.816C137.37 87.392 138.202 88.2133 138.799 89.28C139.418 88.2987 140.26 87.4987 141.327 86.88C142.394 86.2613 143.556 85.952 144.815 85.952ZM154.818 95.04C154.818 93.2053 155.159 91.5947 155.842 90.208C156.546 88.8213 157.495 87.7547 158.69 87.008C159.885 86.2613 161.218 85.888 162.69 85.888C163.949 85.888 165.047 86.144 165.986 86.656C166.946 87.168 167.682 87.84 168.194 88.672V86.144H173.666V104H168.194V101.472C167.661 102.304 166.914 102.976 165.954 103.488C165.015 104 163.917 104.256 162.658 104.256C161.207 104.256 159.885 103.883 158.69 103.136C157.495 102.368 156.546 101.291 155.842 99.904C155.159 98.496 154.818 96.8747 154.818 95.04ZM168.194 95.072C168.194 93.7067 167.81 92.6293 167.042 91.84C166.295 91.0507 165.378 90.656 164.29 90.656C163.202 90.656 162.274 91.0507 161.506 91.84C160.759 92.608 160.386 93.6747 160.386 95.04C160.386 96.4053 160.759 97.4933 161.506 98.304C162.274 99.0933 163.202 99.488 164.29 99.488C165.378 99.488 166.295 99.0933 167.042 98.304C167.81 97.5147 168.194 96.4373 168.194 95.072ZM180.377 84.288C179.417 84.288 178.627 84.0107 178.009 83.456C177.411 82.88 177.113 82.176 177.113 81.344C177.113 80.4907 177.411 79.7867 178.009 79.232C178.627 78.656 179.417 78.368 180.377 78.368C181.315 78.368 182.083 78.656 182.681 79.232C183.299 79.7867 183.609 80.4907 183.609 81.344C183.609 82.176 183.299 82.88 182.681 83.456C182.083 84.0107 181.315 84.288 180.377 84.288ZM183.097 86.144V104H177.625V86.144H183.097ZM197.942 85.952C200.033 85.952 201.697 86.6347 202.934 88C204.193 89.344 204.822 91.2 204.822 93.568V104H199.382V94.304C199.382 93.1093 199.073 92.1813 198.454 91.52C197.835 90.8587 197.003 90.528 195.958 90.528C194.913 90.528 194.081 90.8587 193.462 91.52C192.843 92.1813 192.534 93.1093 192.534 94.304V104H187.062V86.144H192.534V88.512C193.089 87.7227 193.835 87.104 194.774 86.656C195.713 86.1867 196.769 85.952 197.942 85.952ZM211.185 104.256C210.225 104.256 209.435 103.979 208.817 103.424C208.219 102.848 207.921 102.144 207.921 101.312C207.921 100.459 208.219 99.744 208.817 99.168C209.435 98.592 210.225 98.304 211.185 98.304C212.123 98.304 212.891 98.592 213.489 99.168C214.107 99.744 214.417 100.459 214.417 101.312C214.417 102.144 214.107 102.848 213.489 103.424C212.891 103.979 212.123 104.256 211.185 104.256ZM234.488 94.784C234.488 95.296 234.456 95.8293 234.392 96.384H222.008C222.093 97.4933 222.445 98.3467 223.064 98.944C223.704 99.52 224.483 99.808 225.4 99.808C226.765 99.808 227.715 99.232 228.248 98.08H234.072C233.773 99.2533 233.229 100.309 232.44 101.248C231.672 102.187 230.701 102.923 229.528 103.456C228.355 103.989 227.043 104.256 225.592 104.256C223.843 104.256 222.285 103.883 220.92 103.136C219.555 102.389 218.488 101.323 217.72 99.936C216.952 98.5493 216.568 96.928 216.568 95.072C216.568 93.216 216.941 91.5947 217.688 90.208C218.456 88.8213 219.523 87.7547 220.888 87.008C222.253 86.2613 223.821 85.888 225.592 85.888C227.32 85.888 228.856 86.2507 230.2 86.976C231.544 87.7013 232.589 88.736 233.336 90.08C234.104 91.424 234.488 92.992 234.488 94.784ZM228.888 93.344C228.888 92.4053 228.568 91.6587 227.928 91.104C227.288 90.5493 226.488 90.272 225.528 90.272C224.611 90.272 223.832 90.5387 223.192 91.072C222.573 91.6053 222.189 92.3627 222.04 93.344H228.888ZM247.327 99.36V104H244.543C242.559 104 241.012 103.52 239.903 102.56C238.793 101.579 238.239 99.9893 238.239 97.792V90.688H236.063V86.144H238.239V81.792H243.711V86.144H247.295V90.688H243.711V97.856C243.711 98.3893 243.839 98.7733 244.095 99.008C244.351 99.2427 244.777 99.36 245.375 99.36H247.327ZM261.351 85.952C263.399 85.952 265.041 86.6347 266.279 88C267.516 89.344 268.135 91.2 268.135 93.568V104H262.695V94.304C262.695 93.1093 262.385 92.1813 261.767 91.52C261.148 90.8587 260.316 90.528 259.271 90.528C258.225 90.528 257.393 90.8587 256.775 91.52C256.156 92.1813 255.847 93.1093 255.847 94.304V104H250.375V80.32H255.847V88.544C256.401 87.7547 257.159 87.1253 258.119 86.656C259.079 86.1867 260.156 85.952 261.351 85.952Z" fill="#3B82F6"/>
<rect x="713" y="492" width="378" height="116" rx="20" fill="#BFDBFE"/>
<path d="M765.911 542.952C768.002 542.952 769.666 543.635 770.903 545C772.162 546.344 772.791 548.2 772.791 550.568V561H767.351V551.304C767.351 550.109 767.042 549.181 766.423 548.52C765.804 547.859 764.972 547.528 763.927 547.528C762.882 547.528 762.05 547.859 761.431 548.52C760.812 549.181 760.503 550.109 760.503 551.304V561H755.031V543.144H760.503V545.512C761.058 544.723 761.804 544.104 762.743 543.656C763.682 543.187 764.738 542.952 765.911 542.952ZM775.505 552.04C775.505 550.205 775.847 548.595 776.529 547.208C777.233 545.821 778.183 544.755 779.377 544.008C780.572 543.261 781.905 542.888 783.377 542.888C784.636 542.888 785.735 543.144 786.673 543.656C787.633 544.168 788.369 544.84 788.881 545.672V543.144H794.353V561H788.881V558.472C788.348 559.304 787.601 559.976 786.641 560.488C785.703 561 784.604 561.256 783.345 561.256C781.895 561.256 780.572 560.883 779.377 560.136C778.183 559.368 777.233 558.291 776.529 556.904C775.847 555.496 775.505 553.875 775.505 552.04ZM788.881 552.072C788.881 550.707 788.497 549.629 787.729 548.84C786.983 548.051 786.065 547.656 784.977 547.656C783.889 547.656 782.961 548.051 782.193 548.84C781.447 549.608 781.073 550.675 781.073 552.04C781.073 553.405 781.447 554.493 782.193 555.304C782.961 556.093 783.889 556.488 784.977 556.488C786.065 556.488 786.983 556.093 787.729 555.304C788.497 554.515 788.881 553.437 788.881 552.072ZM821.096 542.952C823.315 542.952 825.075 543.624 826.376 544.968C827.699 546.312 828.36 548.179 828.36 550.568V561H822.92V551.304C822.92 550.152 822.611 549.267 821.992 548.648C821.395 548.008 820.563 547.688 819.496 547.688C818.429 547.688 817.587 548.008 816.968 548.648C816.371 549.267 816.072 550.152 816.072 551.304V561H810.632V551.304C810.632 550.152 810.323 549.267 809.704 548.648C809.107 548.008 808.275 547.688 807.208 547.688C806.141 547.688 805.299 548.008 804.68 548.648C804.083 549.267 803.784 550.152 803.784 551.304V561H798.312V543.144H803.784V545.384C804.339 544.637 805.064 544.051 805.96 543.624C806.856 543.176 807.869 542.952 809 542.952C810.344 542.952 811.539 543.24 812.584 543.816C813.651 544.392 814.483 545.213 815.08 546.28C815.699 545.299 816.541 544.499 817.608 543.88C818.675 543.261 819.837 542.952 821.096 542.952ZM849.019 551.784C849.019 552.296 848.987 552.829 848.923 553.384H836.539C836.624 554.493 836.976 555.347 837.595 555.944C838.235 556.52 839.014 556.808 839.931 556.808C841.296 556.808 842.246 556.232 842.779 555.08H848.603C848.304 556.253 847.76 557.309 846.971 558.248C846.203 559.187 845.232 559.923 844.059 560.456C842.886 560.989 841.574 561.256 840.123 561.256C838.374 561.256 836.816 560.883 835.451 560.136C834.086 559.389 833.019 558.323 832.251 556.936C831.483 555.549 831.099 553.928 831.099 552.072C831.099 550.216 831.472 548.595 832.219 547.208C832.987 545.821 834.054 544.755 835.419 544.008C836.784 543.261 838.352 542.888 840.123 542.888C841.851 542.888 843.387 543.251 844.731 543.976C846.075 544.701 847.12 545.736 847.867 547.08C848.635 548.424 849.019 549.992 849.019 551.784ZM843.419 550.344C843.419 549.405 843.099 548.659 842.459 548.104C841.819 547.549 841.019 547.272 840.059 547.272C839.142 547.272 838.363 547.539 837.723 548.072C837.104 548.605 836.72 549.363 836.571 550.344H843.419ZM854.466 561.256C853.506 561.256 852.717 560.979 852.098 560.424C851.501 559.848 851.202 559.144 851.202 558.312C851.202 557.459 851.501 556.744 852.098 556.168C852.717 555.592 853.506 555.304 854.466 555.304C855.405 555.304 856.173 555.592 856.77 556.168C857.389 556.744 857.698 557.459 857.698 558.312C857.698 559.144 857.389 559.848 856.77 560.424C856.173 560.979 855.405 561.256 854.466 561.256ZM859.849 552.04C859.849 550.205 860.19 548.595 860.873 547.208C861.577 545.821 862.526 544.755 863.721 544.008C864.916 543.261 866.249 542.888 867.721 542.888C868.894 542.888 869.961 543.133 870.921 543.624C871.902 544.115 872.67 544.776 873.225 545.608V537.32H878.697V561H873.225V558.44C872.713 559.293 871.977 559.976 871.017 560.488C870.078 561 868.98 561.256 867.721 561.256C866.249 561.256 864.916 560.883 863.721 560.136C862.526 559.368 861.577 558.291 860.873 556.904C860.19 555.496 859.849 553.875 859.849 552.04ZM873.225 552.072C873.225 550.707 872.841 549.629 872.073 548.84C871.326 548.051 870.409 547.656 869.321 547.656C868.233 547.656 867.305 548.051 866.537 548.84C865.79 549.608 865.417 550.675 865.417 552.04C865.417 553.405 865.79 554.493 866.537 555.304C867.305 556.093 868.233 556.488 869.321 556.488C870.409 556.488 871.326 556.093 872.073 555.304C872.841 554.515 873.225 553.437 873.225 552.072ZM890.784 561.256C889.035 561.256 887.456 560.883 886.048 560.136C884.661 559.389 883.563 558.323 882.752 556.936C881.963 555.549 881.568 553.928 881.568 552.072C881.568 550.237 881.973 548.627 882.784 547.24C883.595 545.832 884.704 544.755 886.112 544.008C887.52 543.261 889.099 542.888 890.848 542.888C892.597 542.888 894.176 543.261 895.584 544.008C896.992 544.755 898.101 545.832 898.912 547.24C899.723 548.627 900.128 550.237 900.128 552.072C900.128 553.907 899.712 555.528 898.88 556.936C898.069 558.323 896.949 559.389 895.52 560.136C894.112 560.883 892.533 561.256 890.784 561.256ZM890.784 556.52C891.829 556.52 892.715 556.136 893.44 555.368C894.187 554.6 894.56 553.501 894.56 552.072C894.56 550.643 894.197 549.544 893.472 548.776C892.768 548.008 891.893 547.624 890.848 547.624C889.781 547.624 888.896 548.008 888.192 548.776C887.488 549.523 887.136 550.621 887.136 552.072C887.136 553.501 887.477 554.6 888.16 555.368C888.864 556.136 889.739 556.52 890.784 556.52ZM925.815 542.952C928.034 542.952 929.794 543.624 931.095 544.968C932.418 546.312 933.079 548.179 933.079 550.568V561H927.639V551.304C927.639 550.152 927.33 549.267 926.711 548.648C926.114 548.008 925.282 547.688 924.215 547.688C923.148 547.688 922.306 548.008 921.687 548.648C921.09 549.267 920.791 550.152 920.791 551.304V561H915.351V551.304C915.351 550.152 915.042 549.267 914.423 548.648C913.826 548.008 912.994 547.688 911.927 547.688C910.86 547.688 910.018 548.008 909.399 548.648C908.802 549.267 908.503 550.152 908.503 551.304V561H903.031V543.144H908.503V545.384C909.058 544.637 909.783 544.051 910.679 543.624C911.575 543.176 912.588 542.952 913.719 542.952C915.063 542.952 916.258 543.24 917.303 543.816C918.37 544.392 919.202 545.213 919.799 546.28C920.418 545.299 921.26 544.499 922.327 543.88C923.394 543.261 924.556 542.952 925.815 542.952ZM935.818 552.04C935.818 550.205 936.159 548.595 936.842 547.208C937.546 545.821 938.495 544.755 939.69 544.008C940.885 543.261 942.218 542.888 943.69 542.888C944.949 542.888 946.047 543.144 946.986 543.656C947.946 544.168 948.682 544.84 949.194 545.672V543.144H954.666V561H949.194V558.472C948.661 559.304 947.914 559.976 946.954 560.488C946.015 561 944.917 561.256 943.658 561.256C942.207 561.256 940.885 560.883 939.69 560.136C938.495 559.368 937.546 558.291 936.842 556.904C936.159 555.496 935.818 553.875 935.818 552.04ZM949.194 552.072C949.194 550.707 948.81 549.629 948.042 548.84C947.295 548.051 946.378 547.656 945.29 547.656C944.202 547.656 943.274 548.051 942.506 548.84C941.759 549.608 941.386 550.675 941.386 552.04C941.386 553.405 941.759 554.493 942.506 555.304C943.274 556.093 944.202 556.488 945.29 556.488C946.378 556.488 947.295 556.093 948.042 555.304C948.81 554.515 949.194 553.437 949.194 552.072ZM961.377 541.288C960.417 541.288 959.627 541.011 959.009 540.456C958.411 539.88 958.113 539.176 958.113 538.344C958.113 537.491 958.411 536.787 959.009 536.232C959.627 535.656 960.417 535.368 961.377 535.368C962.315 535.368 963.083 535.656 963.681 536.232C964.299 536.787 964.609 537.491 964.609 538.344C964.609 539.176 964.299 539.88 963.681 540.456C963.083 541.011 962.315 541.288 961.377 541.288ZM964.097 543.144V561H958.625V543.144H964.097ZM978.942 542.952C981.033 542.952 982.697 543.635 983.934 545C985.193 546.344 985.822 548.2 985.822 550.568V561H980.382V551.304C980.382 550.109 980.073 549.181 979.454 548.52C978.835 547.859 978.003 547.528 976.958 547.528C975.913 547.528 975.081 547.859 974.462 548.52C973.843 549.181 973.534 550.109 973.534 551.304V561H968.062V543.144H973.534V545.512C974.089 544.723 974.835 544.104 975.774 543.656C976.713 543.187 977.769 542.952 978.942 542.952ZM992.185 561.256C991.225 561.256 990.435 560.979 989.817 560.424C989.219 559.848 988.921 559.144 988.921 558.312C988.921 557.459 989.219 556.744 989.817 556.168C990.435 555.592 991.225 555.304 992.185 555.304C993.123 555.304 993.891 555.592 994.489 556.168C995.107 556.744 995.417 557.459 995.417 558.312C995.417 559.144 995.107 559.848 994.489 560.424C993.891 560.979 993.123 561.256 992.185 561.256ZM1015.49 551.784C1015.49 552.296 1015.46 552.829 1015.39 553.384H1003.01C1003.09 554.493 1003.45 555.347 1004.06 555.944C1004.7 556.52 1005.48 556.808 1006.4 556.808C1007.77 556.808 1008.71 556.232 1009.25 555.08H1015.07C1014.77 556.253 1014.23 557.309 1013.44 558.248C1012.67 559.187 1011.7 559.923 1010.53 560.456C1009.35 560.989 1008.04 561.256 1006.59 561.256C1004.84 561.256 1003.29 560.883 1001.92 560.136C1000.55 559.389 999.488 558.323 998.72 556.936C997.952 555.549 997.568 553.928 997.568 552.072C997.568 550.216 997.941 548.595 998.688 547.208C999.456 545.821 1000.52 544.755 1001.89 544.008C1003.25 543.261 1004.82 542.888 1006.59 542.888C1008.32 542.888 1009.86 543.251 1011.2 543.976C1012.54 544.701 1013.59 545.736 1014.34 547.08C1015.1 548.424 1015.49 549.992 1015.49 551.784ZM1009.89 550.344C1009.89 549.405 1009.57 548.659 1008.93 548.104C1008.29 547.549 1007.49 547.272 1006.53 547.272C1005.61 547.272 1004.83 547.539 1004.19 548.072C1003.57 548.605 1003.19 549.363 1003.04 550.344H1009.89ZM1028.33 556.36V561H1025.54C1023.56 561 1022.01 560.52 1020.9 559.56C1019.79 558.579 1019.24 556.989 1019.24 554.792V547.688H1017.06V543.144H1019.24V538.792H1024.71V543.144H1028.29V547.688H1024.71V554.856C1024.71 555.389 1024.84 555.773 1025.09 556.008C1025.35 556.243 1025.78 556.36 1026.37 556.36H1028.33ZM1042.35 542.952C1044.4 542.952 1046.04 543.635 1047.28 545C1048.52 546.344 1049.13 548.2 1049.13 550.568V561H1043.69V551.304C1043.69 550.109 1043.39 549.181 1042.77 548.52C1042.15 547.859 1041.32 547.528 1040.27 547.528C1039.23 547.528 1038.39 547.859 1037.77 548.52C1037.16 549.181 1036.85 550.109 1036.85 551.304V561H1031.37V537.32H1036.85V545.544C1037.4 544.755 1038.16 544.125 1039.12 543.656C1040.08 543.187 1041.16 542.952 1042.35 542.952Z" fill="#3B82F6"/>
<rect x="546" y="76" width="423" height="116" rx="20" fill="#DBEAFE"/>
<path d="M610.868 125.68V148H604.028V144.96C603.334 145.947 602.388 146.747 601.188 147.36C600.014 147.947 598.708 148.24 597.268 148.24C595.561 148.24 594.054 147.867 592.748 147.12C591.441 146.347 590.428 145.24 589.708 143.8C588.988 142.36 588.628 140.667 588.628 138.72V125.68H595.428V137.8C595.428 139.293 595.814 140.453 596.588 141.28C597.361 142.107 598.401 142.52 599.708 142.52C601.041 142.52 602.094 142.107 602.868 141.28C603.641 140.453 604.028 139.293 604.028 137.8V125.68H610.868ZM624.861 148.32C622.914 148.32 621.181 147.987 619.661 147.32C618.141 146.653 616.941 145.747 616.061 144.6C615.181 143.427 614.687 142.12 614.581 140.68H621.341C621.421 141.453 621.781 142.08 622.421 142.56C623.061 143.04 623.847 143.28 624.781 143.28C625.634 143.28 626.287 143.12 626.741 142.8C627.221 142.453 627.461 142.013 627.461 141.48C627.461 140.84 627.127 140.373 626.461 140.08C625.794 139.76 624.714 139.413 623.221 139.04C621.621 138.667 620.287 138.28 619.221 137.88C618.154 137.453 617.234 136.8 616.461 135.92C615.687 135.013 615.301 133.8 615.301 132.28C615.301 131 615.647 129.84 616.341 128.8C617.061 127.733 618.101 126.893 619.461 126.28C620.847 125.667 622.487 125.36 624.381 125.36C627.181 125.36 629.381 126.053 630.981 127.44C632.607 128.827 633.541 130.667 633.781 132.96H627.461C627.354 132.187 627.007 131.573 626.421 131.12C625.861 130.667 625.114 130.44 624.181 130.44C623.381 130.44 622.767 130.6 622.341 130.92C621.914 131.213 621.701 131.627 621.701 132.16C621.701 132.8 622.034 133.28 622.701 133.6C623.394 133.92 624.461 134.24 625.901 134.56C627.554 134.987 628.901 135.413 629.941 135.84C630.981 136.24 631.887 136.907 632.661 137.84C633.461 138.747 633.874 139.973 633.901 141.52C633.901 142.827 633.527 144 632.781 145.04C632.061 146.053 631.007 146.853 629.621 147.44C628.261 148.027 626.674 148.32 624.861 148.32ZM659.125 136.48C659.125 137.12 659.085 137.787 659.005 138.48H643.525C643.632 139.867 644.072 140.933 644.845 141.68C645.645 142.4 646.619 142.76 647.765 142.76C649.472 142.76 650.659 142.04 651.325 140.6H658.605C658.232 142.067 657.552 143.387 656.565 144.56C655.605 145.733 654.392 146.653 652.925 147.32C651.459 147.987 649.819 148.32 648.005 148.32C645.819 148.32 643.872 147.853 642.165 146.92C640.459 145.987 639.125 144.653 638.165 142.92C637.205 141.187 636.725 139.16 636.725 136.84C636.725 134.52 637.192 132.493 638.125 130.76C639.085 129.027 640.419 127.693 642.125 126.76C643.832 125.827 645.792 125.36 648.005 125.36C650.165 125.36 652.085 125.813 653.765 126.72C655.445 127.627 656.752 128.92 657.685 130.6C658.645 132.28 659.125 134.24 659.125 136.48ZM652.125 134.68C652.125 133.507 651.725 132.573 650.925 131.88C650.125 131.187 649.125 130.84 647.925 130.84C646.779 130.84 645.805 131.173 645.005 131.84C644.232 132.507 643.752 133.453 643.565 134.68H652.125ZM669.574 129.4C670.374 128.173 671.374 127.213 672.574 126.52C673.774 125.8 675.107 125.44 676.574 125.44V132.68H674.694C672.987 132.68 671.707 133.053 670.854 133.8C670.001 134.52 669.574 135.8 669.574 137.64V148H662.734V125.68H669.574V129.4ZM683.043 148.32C681.843 148.32 680.857 147.973 680.083 147.28C679.337 146.56 678.963 145.68 678.963 144.64C678.963 143.573 679.337 142.68 680.083 141.96C680.857 141.24 681.843 140.88 683.043 140.88C684.217 140.88 685.177 141.24 685.923 141.96C686.697 142.68 687.083 143.573 687.083 144.64C687.083 145.68 686.697 146.56 685.923 147.28C685.177 147.973 684.217 148.32 683.043 148.32ZM689.772 136.8C689.772 134.507 690.199 132.493 691.052 130.76C691.932 129.027 693.119 127.693 694.612 126.76C696.106 125.827 697.772 125.36 699.612 125.36C701.079 125.36 702.412 125.667 703.612 126.28C704.839 126.893 705.799 127.72 706.492 128.76V118.4H713.332V148H706.492V144.8C705.852 145.867 704.932 146.72 703.732 147.36C702.559 148 701.186 148.32 699.612 148.32C697.772 148.32 696.106 147.853 694.612 146.92C693.119 145.96 691.932 144.613 691.052 142.88C690.199 141.12 689.772 139.093 689.772 136.8ZM706.492 136.84C706.492 135.133 706.012 133.787 705.052 132.8C704.119 131.813 702.972 131.32 701.612 131.32C700.252 131.32 699.092 131.813 698.132 132.8C697.199 133.76 696.732 135.093 696.732 136.8C696.732 138.507 697.199 139.867 698.132 140.88C699.092 141.867 700.252 142.36 701.612 142.36C702.972 142.36 704.119 141.867 705.052 140.88C706.012 139.893 706.492 138.547 706.492 136.84ZM728.441 148.32C726.254 148.32 724.281 147.853 722.521 146.92C720.787 145.987 719.414 144.653 718.401 142.92C717.414 141.187 716.921 139.16 716.921 136.84C716.921 134.547 717.427 132.533 718.441 130.8C719.454 129.04 720.841 127.693 722.601 126.76C724.361 125.827 726.334 125.36 728.521 125.36C730.707 125.36 732.681 125.827 734.441 126.76C736.201 127.693 737.587 129.04 738.601 130.8C739.614 132.533 740.121 134.547 740.121 136.84C740.121 139.133 739.601 141.16 738.561 142.92C737.547 144.653 736.147 145.987 734.361 146.92C732.601 147.853 730.627 148.32 728.441 148.32ZM728.441 142.4C729.747 142.4 730.854 141.92 731.761 140.96C732.694 140 733.161 138.627 733.161 136.84C733.161 135.053 732.707 133.68 731.801 132.72C730.921 131.76 729.827 131.28 728.521 131.28C727.187 131.28 726.081 131.76 725.201 132.72C724.321 133.653 723.881 135.027 723.881 136.84C723.881 138.627 724.307 140 725.161 140.96C726.041 141.92 727.134 142.4 728.441 142.4ZM772.23 125.44C775.003 125.44 777.203 126.28 778.83 127.96C780.483 129.64 781.31 131.973 781.31 134.96V148H774.51V135.88C774.51 134.44 774.123 133.333 773.35 132.56C772.603 131.76 771.563 131.36 770.23 131.36C768.896 131.36 767.843 131.76 767.07 132.56C766.323 133.333 765.95 134.44 765.95 135.88V148H759.15V135.88C759.15 134.44 758.763 133.333 757.99 132.56C757.243 131.76 756.203 131.36 754.87 131.36C753.536 131.36 752.483 131.76 751.71 132.56C750.963 133.333 750.59 134.44 750.59 135.88V148H743.75V125.68H750.59V128.48C751.283 127.547 752.19 126.813 753.31 126.28C754.43 125.72 755.696 125.44 757.11 125.44C758.79 125.44 760.283 125.8 761.59 126.52C762.923 127.24 763.963 128.267 764.71 129.6C765.483 128.373 766.536 127.373 767.87 126.6C769.203 125.827 770.656 125.44 772.23 125.44ZM784.733 136.8C784.733 134.507 785.16 132.493 786.013 130.76C786.893 129.027 788.08 127.693 789.573 126.76C791.067 125.827 792.733 125.36 794.573 125.36C796.147 125.36 797.52 125.68 798.693 126.32C799.893 126.96 800.813 127.8 801.453 128.84V125.68H808.293V148H801.453V144.84C800.787 145.88 799.853 146.72 798.653 147.36C797.48 148 796.107 148.32 794.533 148.32C792.72 148.32 791.067 147.853 789.573 146.92C788.08 145.96 786.893 144.613 786.013 142.88C785.16 141.12 784.733 139.093 784.733 136.8ZM801.453 136.84C801.453 135.133 800.973 133.787 800.013 132.8C799.08 131.813 797.933 131.32 796.573 131.32C795.213 131.32 794.053 131.813 793.093 132.8C792.16 133.76 791.693 135.093 791.693 136.8C791.693 138.507 792.16 139.867 793.093 140.88C794.053 141.867 795.213 142.36 796.573 142.36C797.933 142.36 799.08 141.867 800.013 140.88C800.973 139.893 801.453 138.547 801.453 136.84ZM816.682 123.36C815.482 123.36 814.495 123.013 813.722 122.32C812.975 121.6 812.602 120.72 812.602 119.68C812.602 118.613 812.975 117.733 813.722 117.04C814.495 116.32 815.482 115.96 816.682 115.96C817.855 115.96 818.815 116.32 819.562 117.04C820.335 117.733 820.722 118.613 820.722 119.68C820.722 120.72 820.335 121.6 819.562 122.32C818.815 123.013 817.855 123.36 816.682 123.36ZM820.082 125.68V148H813.242V125.68H820.082ZM838.639 125.44C841.252 125.44 843.332 126.293 844.879 128C846.452 129.68 847.239 132 847.239 134.96V148H840.439V135.88C840.439 134.387 840.052 133.227 839.279 132.4C838.505 131.573 837.465 131.16 836.159 131.16C834.852 131.16 833.812 131.573 833.039 132.4C832.265 133.227 831.879 134.387 831.879 135.88V148H825.039V125.68H831.879V128.64C832.572 127.653 833.505 126.88 834.679 126.32C835.852 125.733 837.172 125.44 838.639 125.44ZM855.192 148.32C853.992 148.32 853.005 147.973 852.232 147.28C851.485 146.56 851.112 145.68 851.112 144.64C851.112 143.573 851.485 142.68 852.232 141.96C853.005 141.24 853.992 140.88 855.192 140.88C856.365 140.88 857.325 141.24 858.072 141.96C858.845 142.68 859.232 143.573 859.232 144.64C859.232 145.68 858.845 146.56 858.072 147.28C857.325 147.973 856.365 148.32 855.192 148.32ZM884.321 136.48C884.321 137.12 884.281 137.787 884.201 138.48H868.721C868.827 139.867 869.267 140.933 870.041 141.68C870.841 142.4 871.814 142.76 872.961 142.76C874.667 142.76 875.854 142.04 876.521 140.6H883.801C883.427 142.067 882.747 143.387 881.761 144.56C880.801 145.733 879.587 146.653 878.121 147.32C876.654 147.987 875.014 148.32 873.201 148.32C871.014 148.32 869.067 147.853 867.361 146.92C865.654 145.987 864.321 144.653 863.361 142.92C862.401 141.187 861.921 139.16 861.921 136.84C861.921 134.52 862.387 132.493 863.321 130.76C864.281 129.027 865.614 127.693 867.321 126.76C869.027 125.827 870.987 125.36 873.201 125.36C875.361 125.36 877.281 125.813 878.961 126.72C880.641 127.627 881.947 128.92 882.881 130.6C883.841 132.28 884.321 134.24 884.321 136.48ZM877.321 134.68C877.321 133.507 876.921 132.573 876.121 131.88C875.321 131.187 874.321 130.84 873.121 130.84C871.974 130.84 871.001 131.173 870.201 131.84C869.427 132.507 868.947 133.453 868.761 134.68H877.321ZM900.369 142.2V148H896.889C894.409 148 892.476 147.4 891.089 146.2C889.703 144.973 889.009 142.987 889.009 140.24V131.36H886.289V125.68H889.009V120.24H895.849V125.68H900.329V131.36H895.849V140.32C895.849 140.987 896.009 141.467 896.329 141.76C896.649 142.053 897.183 142.2 897.929 142.2H900.369ZM917.899 125.44C920.459 125.44 922.513 126.293 924.059 128C925.606 129.68 926.379 132 926.379 134.96V148H919.579V135.88C919.579 134.387 919.193 133.227 918.419 132.4C917.646 131.573 916.606 131.16 915.299 131.16C913.993 131.16 912.953 131.573 912.179 132.4C911.406 133.227 911.019 134.387 911.019 135.88V148H904.179V118.4H911.019V128.68C911.713 127.693 912.659 126.907 913.859 126.32C915.059 125.733 916.406 125.44 917.899 125.44Z" fill="#3B82F6"/>
<path d="M120.5 531.381C120.5 562.927 146.073 588.5 177.619 588.5C177.746 588.5 177.873 588.498 178 588.497V588.502C177.873 588.501 177.746 588.5 177.619 588.5C146.073 588.5 120.5 614.073 120.5 645.619C120.5 645.746 120.502 645.873 120.503 646H120.497C120.498 645.873 120.5 645.746 120.5 645.619C120.5 614.073 94.9268 588.5 63.3809 588.5C63.2539 588.5 63.1268 588.501 63 588.502V588.497C63.1268 588.498 63.2539 588.5 63.3809 588.5C94.9267 588.5 120.5 562.927 120.5 531.381C120.5 531.254 120.498 531.127 120.497 531H120.503C120.502 531.127 120.5 531.254 120.5 531.381Z" fill="#EFF6FF"/>
<path d="M50.5 403.269C50.5 425.488 68.5121 443.501 90.7314 443.501C90.821 443.501 90.9106 443.498 91 443.497V443.504C90.9106 443.503 90.821 443.501 90.7314 443.501C68.5121 443.501 50.5 461.513 50.5 483.732C50.5 483.822 50.5023 483.911 50.5029 484H50.4961C50.4967 483.911 50.5 483.822 50.5 483.732C50.5 461.513 32.4869 443.501 10.2676 443.501C10.1783 443.501 10.0891 443.503 10 443.504V443.497C10.0891 443.498 10.1783 443.501 10.2676 443.501C32.487 443.501 50.5 425.488 50.5 403.269C50.5 403.179 50.4967 403.089 50.4961 403H50.5029C50.5023 403.089 50.5 403.179 50.5 403.269Z" fill="#EFF6FF"/>
<path d="M546.5 61.3271C546.5 88.484 568.515 110.499 595.672 110.499C595.781 110.499 595.891 110.497 596 110.496V110.501C595.891 110.5 595.781 110.499 595.672 110.499C568.515 110.499 546.5 132.514 546.5 159.671C546.5 159.781 546.501 159.89 546.502 160H546.498C546.499 159.89 546.5 159.781 546.5 159.671C546.5 132.514 524.484 110.499 497.327 110.499C497.218 110.499 497.109 110.5 497 110.501V110.496C497.109 110.497 497.218 110.499 497.327 110.499C524.484 110.499 546.5 88.484 546.5 61.3271C546.5 61.2181 546.499 61.1088 546.498 61H546.502C546.501 61.1088 546.5 61.2181 546.5 61.3271Z" fill="#EFF6FF"/>
<path d="M775.5 585.201C775.5 601.934 789.065 615.5 805.798 615.5C805.865 615.5 805.933 615.498 806 615.497V615.502C805.933 615.502 805.865 615.5 805.798 615.5C789.065 615.5 775.5 629.065 775.5 645.798C775.5 645.865 775.502 645.933 775.503 646H775.497C775.498 645.933 775.5 645.865 775.5 645.798C775.5 629.065 761.934 615.5 745.201 615.5C745.134 615.5 745.067 615.502 745 615.502V615.497C745.067 615.498 745.134 615.5 745.201 615.5C761.934 615.5 775.5 601.934 775.5 585.201C775.5 585.134 775.498 585.067 775.497 585H775.503C775.502 585.067 775.5 585.134 775.5 585.201Z" fill="#EFF6FF"/>
<path d="M126.5 111.269C126.5 133.488 144.512 151.501 166.731 151.501C166.821 151.501 166.911 151.498 167 151.497V151.504C166.911 151.503 166.821 151.501 166.731 151.501C144.512 151.501 126.5 169.513 126.5 191.732C126.5 191.822 126.502 191.911 126.503 192H126.496C126.497 191.911 126.5 191.822 126.5 191.732C126.5 169.513 108.487 151.501 86.2676 151.501C86.1783 151.501 86.0891 151.503 86 151.504V151.497C86.0891 151.498 86.1783 151.501 86.2676 151.501C108.487 151.501 126.5 133.488 126.5 111.269C126.5 111.179 126.497 111.089 126.496 111H126.503C126.502 111.089 126.5 111.179 126.5 111.269Z" fill="#EFF6FF"/>
</g>
<defs>
<clipPath id="clip0_41_405">
<path d="M0 12C0 5.3726 5.37258 0 12 0H878C884.627 0 890 5.37258 890 12V657C890 663.627 884.627 669 878 669H12C5.3726 669 0 663.627 0 657V12Z" fill="white"/>
</clipPath>
</defs>
</svg>
