<svg width="193" height="62" viewBox="0 0 193 62" fill="none" xmlns="http://www.w3.org/2000/svg">
    <path d="M83.9423 5.57756V21.5278C83.9423 23.1359 83.4353 24.4325 82.4213 25.4174C81.4073 26.3823 80.0518 26.8647 78.3549 26.8647C76.5959 26.8647 75.1887 26.3521 74.1333 25.327C73.0986 24.2817 72.5813 22.8746 72.5813 21.1057H74.7852C74.8059 22.2515 75.0956 23.1862 75.6543 23.9098C76.2338 24.6335 77.134 24.9953 78.3549 24.9953C79.5138 24.9953 80.3726 24.6636 80.9313 24.0003C81.4901 23.3369 81.7695 22.5128 81.7695 21.5278V5.57756H83.9423Z" fill="#3280F4"/>
    <path d="M104.089 10.1908V26.6536H101.916V23.7591C101.419 24.7842 100.654 25.5682 99.6189 26.1109C98.5841 26.6536 97.4253 26.925 96.1422 26.925C94.1142 26.925 92.4587 26.322 91.1757 25.1159C89.8926 23.8897 89.2511 22.1208 89.2511 19.8092V10.1908H91.3929V19.568C91.3929 21.357 91.8482 22.7239 92.7588 23.6686C93.69 24.6134 94.9523 25.0857 96.5458 25.0857C98.1806 25.0857 99.4843 24.5832 100.457 23.5782C101.43 22.5731 101.916 21.0957 101.916 19.1458V10.1908H104.089Z" fill="#3280F4"/>
    <path d="M114.885 26.8948C112.94 26.8948 111.347 26.4627 110.105 25.5983C108.884 24.7139 108.201 23.5178 108.056 22.0103H110.291C110.395 22.9349 110.84 23.6887 111.626 24.2716C112.433 24.8345 113.509 25.1159 114.854 25.1159C116.034 25.1159 116.955 24.8445 117.617 24.3018C118.3 23.7591 118.641 23.0857 118.641 22.2816C118.641 21.7188 118.455 21.2565 118.082 20.8946C117.71 20.5328 117.234 20.2514 116.655 20.0504C116.096 19.8293 115.33 19.5981 114.358 19.3569C113.095 19.0353 112.071 18.7137 111.284 18.3921C110.498 18.0704 109.826 17.5981 109.267 16.9749C108.729 16.3317 108.46 15.4774 108.46 14.412C108.46 13.608 108.708 12.8642 109.205 12.1808C109.701 11.4974 110.405 10.9546 111.316 10.5526C112.226 10.1506 113.261 9.94956 114.42 9.94956C116.241 9.94956 117.71 10.4018 118.827 11.3064C119.945 12.1908 120.545 13.417 120.628 14.9849H118.455C118.393 14.0201 118 13.2462 117.275 12.6632C116.572 12.0602 115.599 11.7587 114.358 11.7587C113.261 11.7587 112.371 12.0099 111.688 12.5125C111.005 13.015 110.664 13.6381 110.664 14.3819C110.664 15.0251 110.86 15.5578 111.253 15.9799C111.667 16.3819 112.174 16.7036 112.774 16.9448C113.375 17.1659 114.182 17.4171 115.196 17.6986C116.417 18.0202 117.389 18.3317 118.114 18.6333C118.838 18.9348 119.459 19.377 119.976 19.9599C120.493 20.5429 120.762 21.3168 120.783 22.2816C120.783 23.1661 120.535 23.9601 120.038 24.6636C119.541 25.3471 118.848 25.8898 117.958 26.2918C117.068 26.6938 116.044 26.8948 114.885 26.8948Z" fill="#3280F4"/>
    <path d="M127.698 11.9697V22.1912C127.698 23.1962 127.895 23.8897 128.288 24.2716C128.681 24.6536 129.374 24.8445 130.367 24.8445H132.354V26.6536H130.026C128.495 26.6536 127.356 26.3119 126.611 25.6285C125.866 24.9249 125.494 23.7792 125.494 22.1912V11.9697H123.135V10.1908H125.494V6.05999H127.698V10.1908H132.354V11.9697H127.698Z" fill="#3280F4"/>
    <path d="M72.5813 50.7795C72.5813 49.6219 72.8174 48.5952 73.2897 47.6995C73.7764 46.8038 74.4276 46.1147 75.2434 45.6324C76.0735 45.1501 76.9967 44.9089 78.0129 44.9089C78.9002 44.9089 79.6731 45.0812 80.3315 45.4257C81.0042 45.7702 81.5409 46.2043 81.9417 46.728V45.095H84.9688V56.5467H81.9417V54.8723C81.5552 55.4098 81.0185 55.8576 80.3315 56.2159C79.6588 56.5604 78.8788 56.7327 77.9914 56.7327C76.9895 56.7327 76.0735 56.4846 75.2434 55.9885C74.4276 55.4924 73.7764 54.7965 73.2897 53.9008C72.8174 52.9913 72.5813 51.9508 72.5813 50.7795ZM81.9417 50.8208C81.9417 50.118 81.7985 49.5185 81.5123 49.0224C81.226 48.5126 80.8396 48.1267 80.353 47.8649C79.8663 47.5893 79.3439 47.4515 78.7857 47.4515C78.2276 47.4515 77.7123 47.5824 77.24 47.8442C76.7677 48.106 76.3812 48.4919 76.0807 49.0018C75.7944 49.4979 75.6513 50.0904 75.6513 50.7795C75.6513 51.4685 75.7944 52.0749 76.0807 52.5985C76.3812 53.1084 76.7677 53.5011 77.24 53.7768C77.7266 54.0524 78.2419 54.1902 78.7857 54.1902C79.3439 54.1902 79.8663 54.0593 80.353 53.7974C80.8396 53.5218 81.226 53.136 81.5123 52.6399C81.7985 52.13 81.9417 51.5236 81.9417 50.8208Z" fill="#3280F4"/>
    <path d="M110.124 56.5467H104.251L94.4265 42.2258V56.5467H88.5526V33.3291H94.4265L104.251 47.716V33.3291H110.124V56.5467Z" fill="#3280F4"/>
    <path d="M113.214 47.2861C113.214 45.3899 113.581 43.7252 114.314 42.292C115.069 40.8588 116.088 39.7564 117.371 38.9846C118.653 38.2129 120.084 37.8271 121.664 37.8271C123.016 37.8271 124.195 38.0917 125.203 38.6208C126.233 39.15 127.023 39.8445 127.573 40.7045V38.0917H133.447V56.5467H127.573V53.9339C127 54.7938 126.199 55.4883 125.168 56.0175C124.161 56.5467 122.981 56.8113 121.63 56.8113C120.073 56.8113 118.653 56.4254 117.371 55.6537C116.088 54.8599 115.069 53.7464 114.314 52.3133C113.581 50.858 113.214 49.1823 113.214 47.2861ZM127.573 47.3192C127.573 45.908 127.16 44.7945 126.336 43.9787C125.535 43.1629 124.55 42.755 123.382 42.755C122.214 42.755 121.218 43.1629 120.394 43.9787C119.592 44.7725 119.191 45.875 119.191 47.2861C119.191 48.6972 119.592 49.8217 120.394 50.6596C121.218 51.4754 122.214 51.8833 123.382 51.8833C124.55 51.8833 125.535 51.4754 126.336 50.6596C127.16 49.8438 127.573 48.7303 127.573 47.3192Z" fill="#3280F4"/>
    <path d="M162.153 37.8932C164.535 37.8932 166.424 38.5878 167.821 39.9768C169.241 41.3659 169.951 43.2952 169.951 45.7647V56.5467H164.111V46.5254C164.111 45.3347 163.779 44.4197 163.115 43.7803C162.474 43.1188 161.581 42.7881 160.436 42.7881C159.291 42.7881 158.386 43.1188 157.722 43.7803C157.081 44.4197 156.76 45.3347 156.76 46.5254V56.5467H150.921V46.5254C150.921 45.3347 150.589 44.4197 149.925 43.7803C149.283 43.1188 148.39 42.7881 147.245 42.7881C146.1 42.7881 145.196 43.1188 144.532 43.7803C143.89 44.4197 143.57 45.3347 143.57 46.5254V56.5467H137.696V38.0917H143.57V40.4068C144.165 39.6351 144.944 39.0287 145.906 38.5878C146.867 38.1247 147.955 37.8932 149.169 37.8932C150.612 37.8932 151.894 38.1909 153.016 38.7862C154.161 39.3815 155.054 40.2304 155.695 41.3329C156.36 40.3186 157.264 39.4918 158.409 38.8523C159.554 38.2129 160.802 37.8932 162.153 37.8932Z" fill="#3280F4"/>
    <path d="M192.127 47.0215C192.127 47.5507 192.093 48.1019 192.024 48.6752H178.73C178.822 49.8217 179.2 50.7037 179.864 51.3211C180.551 51.9164 181.387 52.214 182.372 52.214C183.837 52.214 184.856 51.6187 185.429 50.4281H191.68C191.36 51.6408 190.776 52.7322 189.929 53.7023C189.104 54.6725 188.062 55.4332 186.803 55.9844C185.543 56.5356 184.135 56.8113 182.578 56.8113C180.7 56.8113 179.028 56.4254 177.562 55.6537C176.097 54.882 174.952 53.7795 174.127 52.3463C173.303 50.9131 172.891 49.2374 172.891 47.3192C172.891 45.4009 173.292 43.7252 174.093 42.292C174.918 40.8588 176.063 39.7564 177.528 38.9846C178.994 38.2129 180.677 37.8271 182.578 37.8271C184.433 37.8271 186.081 38.2019 187.524 38.9516C188.967 39.7012 190.089 40.7706 190.89 42.1597C191.715 43.5488 192.127 45.1694 192.127 47.0215ZM186.116 45.5332C186.116 44.563 185.772 43.7913 185.085 43.218C184.398 42.6448 183.539 42.3581 182.509 42.3581C181.524 42.3581 180.688 42.6337 180.001 43.185C179.337 43.7362 178.925 44.5189 178.765 45.5332H186.116Z" fill="#3280F4"/>
    <circle cx="29.6543" cy="31.4267" r="29.6543" fill="#3280F4"/>
    <circle cx="44.8015" cy="22.2531" r="21.334" fill="#3280F4"/>
    <circle cx="45.6547" cy="21.3997" r="19.2006" fill="white"/>
    <circle cx="49.0682" cy="19.6931" r="14.0805" fill="#3280F4"/>
    <path d="M48.5682 15.5114C49.9442 17.1057 51.6988 17.5207 53.8477 17.1436C50.8827 19.109 50.884 21.8121 51.3786 24.653C51.313 24.68 51.2475 24.707 51.1819 24.734C51.0525 24.5048 50.9008 24.285 50.7975 24.0449C50.3734 23.0597 50.0626 22.0131 49.524 21.0935C48.8742 19.9842 47.9487 19.7582 46.6512 20.1463C45.9792 20.3474 45.3075 20.5495 44.5142 20.6235C44.7739 20.4374 45.0182 20.2249 45.2959 20.0696C46.7483 19.2569 47.7479 18.1627 47.5794 16.4557C47.5085 15.7376 47.1954 15.0501 47.0535 14.336C46.9739 13.9353 47.019 13.5087 47.1688 13.1219C47.6241 13.902 48.0794 14.6822 48.5682 15.5114Z" fill="white"/>
    <circle cx="22.1873" cy="32.9201" r="21.334" fill="#3280F4"/>
    <circle cx="23.8941" cy="31.64" r="18.7739" fill="white"/>
    <circle cx="26.454" cy="30.36" r="14.0805" fill="#3280F4"/>
    <path d="M25.954 26.1783C27.33 27.7727 29.0846 28.1877 31.2335 27.8106C28.2685 29.776 28.2698 32.479 28.7644 35.3199C28.6988 35.3469 28.6333 35.3739 28.5677 35.401C28.4383 35.1718 28.2866 34.952 28.1833 34.7119C27.7592 33.7267 27.4484 32.68 26.9098 31.7604C26.26 30.6512 25.3344 30.4251 24.037 30.8133C23.365 31.0143 22.6933 31.2165 21.9 31.2904C22.1597 31.1043 22.404 30.8919 22.6817 30.7365C24.1341 29.9239 25.1337 28.8296 24.9652 27.1226C24.8943 26.4045 24.5812 25.717 24.4393 25.003C24.3596 24.6022 24.4048 24.1757 24.5546 23.7889C25.0099 24.569 25.4652 25.3491 25.954 26.1783Z" fill="white"/>
</svg>
